<svg width="24" height="24" viewBox="0 0 24 24" fill="none" xmlns="http://www.w3.org/2000/svg">
<g id="ant-design:team-outlined">
<path id="Vector" d="M19.3172 16.404C18.7305 15.8169 18.0451 15.3377 17.2922 14.9883C18.3539 14.1282 19.0312 12.8157 19.0312 11.3438C19.0312 8.74694 16.8656 6.61647 14.2687 6.65631C11.7117 6.69616 9.65156 8.77975 9.65156 11.3438C9.65156 12.8157 10.3312 14.1282 11.3906 14.9883C10.6376 15.3374 9.95208 15.8166 9.36562 16.404C8.08594 17.686 7.35937 19.3782 7.3125 21.1829C7.31187 21.2079 7.31626 21.2328 7.3254 21.2561C7.33455 21.2794 7.34826 21.3006 7.36573 21.3185C7.3832 21.3364 7.40409 21.3506 7.42715 21.3604C7.45021 21.3701 7.47498 21.3751 7.5 21.3751H8.8125C8.91328 21.3751 8.99765 21.2954 9 21.1946C9.04453 19.8352 9.59531 18.5626 10.5633 17.5969C11.0586 17.099 11.6478 16.7042 12.2967 16.4355C12.9456 16.1667 13.6414 16.0294 14.3437 16.0313C15.7711 16.0313 17.1141 16.5868 18.1242 17.5969C19.0898 18.5626 19.6406 19.8352 19.6875 21.1946C19.6898 21.2954 19.7742 21.3751 19.875 21.3751H21.1875C21.2125 21.3751 21.2373 21.3701 21.2604 21.3604C21.2834 21.3506 21.3043 21.3364 21.3218 21.3185C21.3392 21.3006 21.353 21.2794 21.3621 21.2561C21.3712 21.2328 21.3756 21.2079 21.375 21.1829C21.3281 19.3782 20.6016 17.686 19.3172 16.404ZM14.3437 14.3438C13.5422 14.3438 12.7875 14.0321 12.2227 13.4649C11.9392 13.1837 11.7153 12.8482 11.5643 12.4786C11.4133 12.1089 11.3383 11.7126 11.3437 11.3133C11.3508 10.5446 11.6578 9.80162 12.1945 9.25084C12.757 8.67428 13.5094 8.35319 14.3133 8.34381C15.1078 8.33678 15.8789 8.64616 16.4461 9.20162C17.0273 9.77116 17.3461 10.5329 17.3461 11.3438C17.3461 12.1454 17.0344 12.8977 16.4672 13.4649C16.1889 13.7445 15.858 13.9661 15.4935 14.117C15.129 14.2679 14.7382 14.345 14.3437 14.3438ZM8.47265 11.9626C8.45156 11.7587 8.43984 11.5524 8.43984 11.3438C8.43984 10.9712 8.475 10.6079 8.54062 10.254C8.55703 10.1696 8.5125 10.0829 8.43515 10.0477C8.1164 9.90475 7.82344 9.70787 7.57031 9.45944C7.27204 9.17024 7.03734 8.82203 6.88117 8.43705C6.72499 8.05207 6.65079 7.63876 6.66328 7.2235C6.68437 6.47116 6.98672 5.75631 7.51406 5.21725C8.09297 4.62428 8.87109 4.30084 9.69844 4.31022C10.4461 4.31725 11.168 4.60553 11.7141 5.11647C11.8992 5.28991 12.0586 5.48209 12.1922 5.68834C12.2391 5.761 12.3305 5.79147 12.4102 5.76334C12.8227 5.62037 13.2586 5.51959 13.7062 5.47272C13.8375 5.45866 13.9125 5.31803 13.8539 5.20084C13.0922 3.69381 11.5359 2.65319 9.73594 2.62506C7.13672 2.58522 4.97109 4.71569 4.97109 7.31022C4.97109 8.78209 5.64844 10.0946 6.71015 10.9547C5.96484 11.2993 5.27812 11.7751 4.68281 12.3704C3.39844 13.6524 2.67187 15.3446 2.625 17.1516C2.62437 17.1766 2.62876 17.2015 2.6379 17.2248C2.64704 17.2481 2.66076 17.2693 2.67823 17.2872C2.6957 17.3052 2.71659 17.3194 2.73965 17.3291C2.7627 17.3388 2.78748 17.3438 2.8125 17.3438H4.12734C4.22812 17.3438 4.3125 17.2641 4.31484 17.1633C4.35937 15.804 4.91015 14.5313 5.87812 13.5657C6.56719 12.8766 7.41094 12.3985 8.33203 12.1665C8.42344 12.143 8.48437 12.0563 8.47265 11.9626Z" fill="#FFC703"/>
</g>
</svg>
