<svg width="40" height="40" viewBox="0 0 40 40" fill="none" xmlns="http://www.w3.org/2000/svg">
<g id="logos:linkedin-icon" clip-path="url(#clip0_2079_19039)">
<path id="Vector" d="M34.0819 34.0824H28.1552V24.8007C28.1552 22.5874 28.1156 19.7382 25.0727 19.7382C21.9858 19.7382 21.5134 22.1497 21.5134 24.6396V34.0818H15.5869V14.9949H21.2764V17.6033H21.3561C21.9255 16.6297 22.7483 15.8288 23.7369 15.2858C24.7254 14.7429 25.8428 14.4782 26.9698 14.52C32.9769 14.52 34.0844 18.4713 34.0844 23.6116L34.0819 34.0824ZM8.89937 12.386C6.99984 12.3863 5.45969 10.8466 5.45937 8.94707C5.45906 7.04754 6.99859 5.50738 8.89812 5.50707C10.7977 5.5066 12.3378 7.04629 12.3381 8.94582C12.3383 9.85801 11.9761 10.7329 11.3312 11.3781C10.6863 12.0232 9.81157 12.3858 8.89937 12.386ZM11.8628 34.0825H5.92984V14.9949H11.8627V34.0824L11.8628 34.0825ZM37.0366 0.0028502H2.95172C1.34078 -0.0152748 0.0196875 1.27519 0 2.88613V37.1132C0.0190625 38.7249 1.34 40.0166 2.95156 39.9997H37.0366C38.6516 40.0197 39.9777 38.728 40 37.1132V2.88347C39.977 1.26941 38.6508 -0.0208998 37.0366 0.000193948" fill="#0A66C2"/>
</g>
<defs>
<clipPath id="clip0_2079_19039">
<rect width="40" height="40" fill="white"/>
</clipPath>
</defs>
</svg>
