<svg width="24" height="24" viewBox="0 0 24 24" fill="none" xmlns="http://www.w3.org/2000/svg">
<g id="ph:game-controller">
<path id="Vector" d="M17.25 10.8748H14.25C14.0511 10.8748 13.8603 10.7958 13.7197 10.6551C13.579 10.5145 13.5 10.3237 13.5 10.1248C13.5 9.92589 13.579 9.73513 13.7197 9.59447C13.8603 9.45382 14.0511 9.3748 14.25 9.3748H17.25C17.4489 9.3748 17.6397 9.45382 17.7803 9.59447C17.921 9.73513 18 9.92589 18 10.1248C18 10.3237 17.921 10.5145 17.7803 10.6551C17.6397 10.7958 17.4489 10.8748 17.25 10.8748ZM9.75 9.3748H9V8.6248C9 8.42589 8.92098 8.23513 8.78033 8.09447C8.63968 7.95382 8.44891 7.8748 8.25 7.8748C8.05109 7.8748 7.86032 7.95382 7.71967 8.09447C7.57902 8.23513 7.5 8.42589 7.5 8.6248V9.3748H6.75C6.55109 9.3748 6.36032 9.45382 6.21967 9.59447C6.07902 9.73513 6 9.92589 6 10.1248C6 10.3237 6.07902 10.5145 6.21967 10.6551C6.36032 10.7958 6.55109 10.8748 6.75 10.8748H7.5V11.6248C7.5 11.8237 7.57902 12.0145 7.71967 12.1551C7.86032 12.2958 8.05109 12.3748 8.25 12.3748C8.44891 12.3748 8.63968 12.2958 8.78033 12.1551C8.92098 12.0145 9 11.8237 9 11.6248V10.8748H9.75C9.94891 10.8748 10.1397 10.7958 10.2803 10.6551C10.421 10.5145 10.5 10.3237 10.5 10.1248C10.5 9.92589 10.421 9.73513 10.2803 9.59447C10.1397 9.45382 9.94891 9.3748 9.75 9.3748ZM20.4656 20.9436C20.271 20.9808 20.0732 20.9997 19.875 20.9998C18.9823 20.9995 18.1261 20.6456 17.4937 20.0154L17.4469 19.9686L13.6406 15.7311L10.3687 15.7498L6.55312 19.9686L6.51562 20.0154C5.8787 20.6444 5.02014 20.9979 4.125 20.9998C3.92988 21.0001 3.73519 20.9813 3.54375 20.9436C3.10677 20.8677 2.68909 20.7063 2.31471 20.4685C1.94033 20.2307 1.61664 19.9213 1.36225 19.558C1.10786 19.1947 0.927774 18.7847 0.832357 18.3516C0.736939 17.9185 0.728066 17.4707 0.80625 17.0342L2.33437 9.16855V9.1498C2.56193 7.84612 3.24261 6.66469 4.25631 5.81393C5.27001 4.96318 6.5516 4.49777 7.875 4.4998L16.125 4.47168C17.4422 4.47252 18.7174 4.93561 19.7282 5.78024C20.739 6.62486 21.4213 7.79743 21.6562 9.09355C21.6656 9.10293 21.6656 9.10293 21.6656 9.1123L23.1937 17.0248H23.2031C23.3586 17.9073 23.1577 18.8155 22.6445 19.5501C22.1313 20.2848 21.3478 20.7859 20.4656 20.9436ZM16.125 14.2217C17.219 14.2217 18.2682 13.7871 19.0418 13.0135C19.8154 12.2399 20.25 11.1907 20.25 10.0967C20.25 9.00266 19.8154 7.95345 19.0418 7.17986C18.2682 6.40628 17.219 5.97168 16.125 5.97168L7.875 5.9998C6.91006 5.99724 5.97489 6.33381 5.2329 6.95071C4.49091 7.56761 3.98927 8.42561 3.81562 9.3748C3.81708 9.39101 3.81383 9.40729 3.80625 9.42168L2.27812 17.3061C2.21051 17.6968 2.26852 18.0989 2.44384 18.4547C2.61915 18.8104 2.90273 19.1013 3.25381 19.2857C3.6049 19.4701 4.00541 19.5385 4.39778 19.4809C4.79014 19.4234 5.15416 19.2429 5.4375 18.9654L9.47812 14.4936C9.5494 14.4181 9.63506 14.3576 9.73005 14.3158C9.82504 14.2739 9.92745 14.2515 10.0312 14.2498L16.125 14.2217ZM21.7219 17.3061L20.9062 13.0686C20.4007 13.8809 19.6963 14.5509 18.8597 15.0152C18.0231 15.4794 17.0818 15.7226 16.125 15.7217H15.6469L18.5625 18.9654C18.8458 19.2429 19.2099 19.4234 19.6022 19.4809C19.9946 19.5385 20.3951 19.4701 20.7462 19.2857C21.0973 19.1013 21.3808 18.8104 21.5562 18.4547C21.7315 18.0989 21.7895 17.6968 21.7219 17.3061Z" fill="#FF4680"/>
</g>
</svg>
